<?xml version="1.0" encoding="utf-8"?>
<!-- Generator: Adobe Illustrator 27.3.1, SVG Export Plug-In . SVG Version: 6.00 Build 0)  -->
<svg version="1.1" id="Layer_1" xmlns="http://www.w3.org/2000/svg" xmlns:xlink="http://www.w3.org/1999/xlink" x="0px" y="0px"
	 viewBox="0 0 1576.6 797" style="enable-background:new 0 0 1576.6 797;" xml:space="preserve">
<style type="text/css">
	.st0{fill:url(#SVGID_1_);}
	.st1{fill:url(#SVGID_00000044864554577975598900000012167608924058934914_);}
	.st2{fill:url(#SVGID_00000157306757674771123130000015995456956090833073_);}
	.st3{fill:url(#SVGID_00000073715185990578386920000013992437246248947887_);}
	.st4{fill:url(#SVGID_00000053518035965538973930000009117251039554025372_);}
</style>
<g>
	<g>
		<linearGradient id="SVGID_1_" gradientUnits="userSpaceOnUse" x1="1182.2688" y1="79.2477" x2="767.0919" y2="964.9585">
			<stop  offset="0" style="stop-color:#996200"/>
			<stop  offset="3.714875e-02" style="stop-color:#9C6604"/>
			<stop  offset="7.710824e-02" style="stop-color:#A37011"/>
			<stop  offset="0.1184" style="stop-color:#B08227"/>
			<stop  offset="0.1606" style="stop-color:#C19B45"/>
			<stop  offset="0.2031" style="stop-color:#D8BB6B"/>
			<stop  offset="0.2165" style="stop-color:#E0C679"/>
			<stop  offset="0.2528" style="stop-color:#DCC06D"/>
			<stop  offset="0.3176" style="stop-color:#D2AF4E"/>
			<stop  offset="0.3541" style="stop-color:#CCA43A"/>
			<stop  offset="0.3668" style="stop-color:#C59B32"/>
			<stop  offset="0.4192" style="stop-color:#AD7C17"/>
			<stop  offset="0.4636" style="stop-color:#9E6906"/>
			<stop  offset="0.4943" style="stop-color:#996200"/>
			<stop  offset="0.5189" style="stop-color:#9C6604"/>
			<stop  offset="0.5453" style="stop-color:#A37011"/>
			<stop  offset="0.5725" style="stop-color:#B08227"/>
			<stop  offset="0.6004" style="stop-color:#C19B45"/>
			<stop  offset="0.6285" style="stop-color:#D8BB6B"/>
			<stop  offset="0.6374" style="stop-color:#E0C679"/>
			<stop  offset="0.6565" style="stop-color:#D9BC6D"/>
			<stop  offset="0.6907" style="stop-color:#C7A34E"/>
			<stop  offset="0.7359" style="stop-color:#A9791C"/>
			<stop  offset="0.7587" style="stop-color:#996200"/>
			<stop  offset="0.7775" style="stop-color:#9C6604"/>
			<stop  offset="0.7978" style="stop-color:#A37011"/>
			<stop  offset="0.8186" style="stop-color:#B08227"/>
			<stop  offset="0.84" style="stop-color:#C19B45"/>
			<stop  offset="0.8615" style="stop-color:#D8BB6B"/>
			<stop  offset="0.8683" style="stop-color:#E0C679"/>
			<stop  offset="0.889" style="stop-color:#D9BC6D"/>
			<stop  offset="0.9262" style="stop-color:#C7A34E"/>
			<stop  offset="0.9752" style="stop-color:#A9791C"/>
			<stop  offset="1" style="stop-color:#996200"/>
		</linearGradient>
		<path class="st0" d="M1103.6,489.3h-0.8l-0.6,0.4c-14.7,10.4-32.6,23.3-54.6,39.4c-16.8-8.6-37-16-60.1-21.9
			c-23.3-6-48-11.8-73.5-17.2l-3.1-0.7l-0.3-0.1h-0.3h-51.4h-23.8l23.3,4.8c19.4,4,37.3,7.8,53.3,11.4c21.1,4.8,39.8,9.5,55.5,14.1
			c15.6,4.5,29.1,8.9,40,12.9c9.1,3.4,17.1,6.7,23.8,9.9c-25.9,21.7-50.6,43.6-73.6,65.3c-23.9,22.4-44.1,43.5-60,62.8
			c-16,19.3-26.6,36.3-31.4,50.6c-5.1,15.1-1.1,26.4,11.7,32.8c3,1.7,7.1,2.5,12.2,2.5c9.2,0,20.5-2.7,34.4-8.2
			c13.6-5.4,28.1-12.6,43-21.5c14.9-8.8,30-19.2,45.1-30.9c14.9-11.6,28.6-23.9,40.7-36.5c12.1-12.7,22-25.5,29.4-38.1
			c7.6-12.9,11.2-25.3,10.8-36.7l0,0l0,0c-0.8-11.2-4.7-21-11.6-29.4c-6.2-7.3-14.1-14-23.5-19.9c19.2-14.1,36.6-26.5,51.6-36.9
			c0.9-0.6,1.8-1.3,2.7-1.9c1.3-0.9,2.6-1.8,3.9-2.7l6.3-4.4h-7.7H1103.6z M1066.1,601.8c-5.1,11.6-13,23.8-23.5,36.5
			c-10.6,12.8-23.2,25.7-37.4,38.5c-14.2,12.7-28.5,24.3-42.7,34.4c-14,10-27.4,18.3-39.8,24.7c-12.1,6.2-21.6,9.4-28.2,9.4
			c-0.5,0-1.6-0.1-4.2-1c-7.2-2.6-10.9-6.8-11.4-12.9c-0.5-6.5,1.8-14.6,6.9-24.1c5.2-9.8,13.1-21,23.3-33.4
			c10.1-12.3,22.4-25.6,36.4-39.4c14-13.8,29.5-28.3,46.1-43.1c16.2-14.4,33.1-29,50.4-43.4c7.5,4.7,13.2,9.2,16.8,13.3
			c3.9,4.4,7,8.8,9.1,13C1071.5,581.6,1070.9,590.8,1066.1,601.8z"/>
		
			<linearGradient id="SVGID_00000114058132442650562880000017541420502218903203_" gradientUnits="userSpaceOnUse" x1="1172.4734" y1="74.6561" x2="757.2964" y2="960.3669">
			<stop  offset="0" style="stop-color:#996200"/>
			<stop  offset="3.714875e-02" style="stop-color:#9C6604"/>
			<stop  offset="7.710824e-02" style="stop-color:#A37011"/>
			<stop  offset="0.1184" style="stop-color:#B08227"/>
			<stop  offset="0.1606" style="stop-color:#C19B45"/>
			<stop  offset="0.2031" style="stop-color:#D8BB6B"/>
			<stop  offset="0.2165" style="stop-color:#E0C679"/>
			<stop  offset="0.2528" style="stop-color:#DCC06D"/>
			<stop  offset="0.3176" style="stop-color:#D2AF4E"/>
			<stop  offset="0.3541" style="stop-color:#CCA43A"/>
			<stop  offset="0.3668" style="stop-color:#C59B32"/>
			<stop  offset="0.4192" style="stop-color:#AD7C17"/>
			<stop  offset="0.4636" style="stop-color:#9E6906"/>
			<stop  offset="0.4943" style="stop-color:#996200"/>
			<stop  offset="0.5189" style="stop-color:#9C6604"/>
			<stop  offset="0.5453" style="stop-color:#A37011"/>
			<stop  offset="0.5725" style="stop-color:#B08227"/>
			<stop  offset="0.6004" style="stop-color:#C19B45"/>
			<stop  offset="0.6285" style="stop-color:#D8BB6B"/>
			<stop  offset="0.6374" style="stop-color:#E0C679"/>
			<stop  offset="0.6565" style="stop-color:#D9BC6D"/>
			<stop  offset="0.6907" style="stop-color:#C7A34E"/>
			<stop  offset="0.7359" style="stop-color:#A9791C"/>
			<stop  offset="0.7587" style="stop-color:#996200"/>
			<stop  offset="0.7775" style="stop-color:#9C6604"/>
			<stop  offset="0.7978" style="stop-color:#A37011"/>
			<stop  offset="0.8186" style="stop-color:#B08227"/>
			<stop  offset="0.84" style="stop-color:#C19B45"/>
			<stop  offset="0.8615" style="stop-color:#D8BB6B"/>
			<stop  offset="0.8683" style="stop-color:#E0C679"/>
			<stop  offset="0.889" style="stop-color:#D9BC6D"/>
			<stop  offset="0.9262" style="stop-color:#C7A34E"/>
			<stop  offset="0.9752" style="stop-color:#A9791C"/>
			<stop  offset="1" style="stop-color:#996200"/>
		</linearGradient>
		<path style="fill:url(#SVGID_00000114058132442650562880000017541420502218903203_);" d="M1417.9,81.7c-0.8-14-6-24.8-15.3-32.2
			c-7.5-5.9-19.6-8.8-36.9-8.8c-20.8,0-47.5,4.3-79.5,12.8c-31.9,8.5-67,20.3-104.4,35c-37.4,14.7-76.7,32.1-117,51.6
			c-40.3,19.5-79.7,40.4-117.3,62.1c-37.6,21.8-72.7,44.4-104.3,67.1c-16,11.5-30.8,23.1-44.1,34.3l-5,4.3h6.6h22.4h0.9l0.7-0.6
			c8.5-7.1,17.6-14.3,27-21.4c24-18.1,50.7-36.4,79.3-54.4c28.5-18,58.6-35.6,89.6-52.5c30.6-16.6,61.9-32.5,93.2-47
			c31.1-14.4,61.3-27.2,89.8-37.9c28.4-10.6,55.2-19.1,79.5-25.1c24.2-6,45.1-9.1,62.2-9.1c10.4,0,19.2,1.3,26.3,3.7
			c6.9,2.4,12.1,6,15.4,10.8c4.3,6,5.3,14.1,2.9,24c-2.5,10.4-7,21.5-13.3,32.9c-6.4,11.5-13.9,22.7-22.5,33.4
			c-8.6,10.8-16.8,19.7-24.4,26.6l0,0l0,0c-5.9,5.9-7.6,12.2-5,18.9c2.5,6.5,7.9,10.5,16.1,11.7c1.4,0.4,3.3,0.6,6.1,0.6
			c6.7,0,13-1.6,18.9-4.7c5.9-3.2,10.5-7.6,13.7-13.1c5.6-9.7,11.7-21.9,18.1-36.2c6.5-14.5,11.8-29.4,15.6-44.1
			C1417,109.6,1418.6,95.2,1417.9,81.7z"/>
		
			<linearGradient id="SVGID_00000106826550424767989480000011352353134667872648_" gradientUnits="userSpaceOnUse" x1="783.7003" y1="-107.5813" x2="368.5233" y2="778.1295">
			<stop  offset="0" style="stop-color:#996200"/>
			<stop  offset="3.714875e-02" style="stop-color:#9C6604"/>
			<stop  offset="7.710824e-02" style="stop-color:#A37011"/>
			<stop  offset="0.1184" style="stop-color:#B08227"/>
			<stop  offset="0.1606" style="stop-color:#C19B45"/>
			<stop  offset="0.2031" style="stop-color:#D8BB6B"/>
			<stop  offset="0.2165" style="stop-color:#E0C679"/>
			<stop  offset="0.2528" style="stop-color:#DCC06D"/>
			<stop  offset="0.3176" style="stop-color:#D2AF4E"/>
			<stop  offset="0.3541" style="stop-color:#CCA43A"/>
			<stop  offset="0.3668" style="stop-color:#C59B32"/>
			<stop  offset="0.4192" style="stop-color:#AD7C17"/>
			<stop  offset="0.4636" style="stop-color:#9E6906"/>
			<stop  offset="0.4943" style="stop-color:#996200"/>
			<stop  offset="0.5189" style="stop-color:#9C6604"/>
			<stop  offset="0.5453" style="stop-color:#A37011"/>
			<stop  offset="0.5725" style="stop-color:#B08227"/>
			<stop  offset="0.6004" style="stop-color:#C19B45"/>
			<stop  offset="0.6285" style="stop-color:#D8BB6B"/>
			<stop  offset="0.6374" style="stop-color:#E0C679"/>
			<stop  offset="0.6565" style="stop-color:#D9BC6D"/>
			<stop  offset="0.6907" style="stop-color:#C7A34E"/>
			<stop  offset="0.7359" style="stop-color:#A9791C"/>
			<stop  offset="0.7587" style="stop-color:#996200"/>
			<stop  offset="0.7775" style="stop-color:#9C6604"/>
			<stop  offset="0.7978" style="stop-color:#A37011"/>
			<stop  offset="0.8186" style="stop-color:#B08227"/>
			<stop  offset="0.84" style="stop-color:#C19B45"/>
			<stop  offset="0.8615" style="stop-color:#D8BB6B"/>
			<stop  offset="0.8683" style="stop-color:#E0C679"/>
			<stop  offset="0.889" style="stop-color:#D9BC6D"/>
			<stop  offset="0.9262" style="stop-color:#C7A34E"/>
			<stop  offset="0.9752" style="stop-color:#A9791C"/>
			<stop  offset="1" style="stop-color:#996200"/>
		</linearGradient>
		<path style="fill:url(#SVGID_00000106826550424767989480000011352353134667872648_);" d="M479.1,307.8h1l0.7-0.7
			c23.9-22.5,49-44.6,74.7-65.6c44-36,90.3-69.5,137.6-99.7c47.3-30.1,95-56.6,141.6-78.7c5.5-2.5,7.8-7.2,6.6-13.2
			c-1.3-6.1-5.2-9.3-11.3-9.3h-0.6h-0.6l-0.5,0.3c-43.2,21.8-88.6,48.3-135,78.7c-19.7,13.1-41.2,28-64.1,44.3
			c-22.9,16.3-46.7,34.3-70.6,53.6c-24,19.3-48.9,40.4-74,62.8c-8.4,7.5-17,15.4-25.5,23.4l-4.4,4.2h6.1H479.1z"/>
		
			<linearGradient id="SVGID_00000168831503768876139550000001037522118601669516_" gradientUnits="userSpaceOnUse" x1="545.0164" y1="-219.4644" x2="129.8394" y2="666.2464">
			<stop  offset="0" style="stop-color:#996200"/>
			<stop  offset="3.714875e-02" style="stop-color:#9C6604"/>
			<stop  offset="7.710824e-02" style="stop-color:#A37011"/>
			<stop  offset="0.1184" style="stop-color:#B08227"/>
			<stop  offset="0.1606" style="stop-color:#C19B45"/>
			<stop  offset="0.2031" style="stop-color:#D8BB6B"/>
			<stop  offset="0.2165" style="stop-color:#E0C679"/>
			<stop  offset="0.2528" style="stop-color:#DCC06D"/>
			<stop  offset="0.3176" style="stop-color:#D2AF4E"/>
			<stop  offset="0.3541" style="stop-color:#CCA43A"/>
			<stop  offset="0.3668" style="stop-color:#C59B32"/>
			<stop  offset="0.4192" style="stop-color:#AD7C17"/>
			<stop  offset="0.4636" style="stop-color:#9E6906"/>
			<stop  offset="0.4943" style="stop-color:#996200"/>
			<stop  offset="0.5189" style="stop-color:#9C6604"/>
			<stop  offset="0.5453" style="stop-color:#A37011"/>
			<stop  offset="0.5725" style="stop-color:#B08227"/>
			<stop  offset="0.6004" style="stop-color:#C19B45"/>
			<stop  offset="0.6285" style="stop-color:#D8BB6B"/>
			<stop  offset="0.6374" style="stop-color:#E0C679"/>
			<stop  offset="0.6565" style="stop-color:#D9BC6D"/>
			<stop  offset="0.6907" style="stop-color:#C7A34E"/>
			<stop  offset="0.7359" style="stop-color:#A9791C"/>
			<stop  offset="0.7587" style="stop-color:#996200"/>
			<stop  offset="0.7775" style="stop-color:#9C6604"/>
			<stop  offset="0.7978" style="stop-color:#A37011"/>
			<stop  offset="0.8186" style="stop-color:#B08227"/>
			<stop  offset="0.84" style="stop-color:#C19B45"/>
			<stop  offset="0.8615" style="stop-color:#D8BB6B"/>
			<stop  offset="0.8683" style="stop-color:#E0C679"/>
			<stop  offset="0.889" style="stop-color:#D9BC6D"/>
			<stop  offset="0.9262" style="stop-color:#C7A34E"/>
			<stop  offset="0.9752" style="stop-color:#A9791C"/>
			<stop  offset="1" style="stop-color:#996200"/>
		</linearGradient>
		<path style="fill:url(#SVGID_00000168831503768876139550000001037522118601669516_);" d="M261.6,307.8h1l0.7-0.8
			c2.5-2.7,4.8-5.2,7-7.6c14.5-16.1,28.2-33.3,41-51.2c12.8-17.9,24.4-35.7,34.7-53c14.9-24.6,29.1-50.5,42.5-77.3l-69.3,186.6
			l-1.2,3.3h3.5h28.2h1.7l0.6-1.5l93.7-240.6c2.4-5.7,1.8-11.2-1.8-16.5c-3.6-5.2-8.7-7.9-15.3-7.9h-3.1c-5,0-9.5,1.3-13.4,3.8
			c-3.9,2.5-6.8,6.1-8.6,10.7c-4.4,9.7-11.1,23.6-20.3,42.5c-9,18.5-20,39.1-32.7,61.4c-12.7,22.4-27.3,45.7-43.2,69.4
			c-15.9,23.6-33.2,45.9-51.4,66.2c-2.5,2.8-5.2,5.7-7.8,8.5l-3.9,4.1h5.6H261.6z"/>
		
			<linearGradient id="SVGID_00000116204403864310797650000015853149957899079318_" gradientUnits="userSpaceOnUse" x1="844.561" y1="-79.0529" x2="429.384" y2="806.658">
			<stop  offset="0" style="stop-color:#996200"/>
			<stop  offset="3.714875e-02" style="stop-color:#9C6604"/>
			<stop  offset="7.710824e-02" style="stop-color:#A37011"/>
			<stop  offset="0.1184" style="stop-color:#B08227"/>
			<stop  offset="0.1606" style="stop-color:#C19B45"/>
			<stop  offset="0.2031" style="stop-color:#D8BB6B"/>
			<stop  offset="0.2165" style="stop-color:#E0C679"/>
			<stop  offset="0.2528" style="stop-color:#DCC06D"/>
			<stop  offset="0.3176" style="stop-color:#D2AF4E"/>
			<stop  offset="0.3541" style="stop-color:#CCA43A"/>
			<stop  offset="0.3668" style="stop-color:#C59B32"/>
			<stop  offset="0.4192" style="stop-color:#AD7C17"/>
			<stop  offset="0.4636" style="stop-color:#9E6906"/>
			<stop  offset="0.4943" style="stop-color:#996200"/>
			<stop  offset="0.5189" style="stop-color:#9C6604"/>
			<stop  offset="0.5453" style="stop-color:#A37011"/>
			<stop  offset="0.5725" style="stop-color:#B08227"/>
			<stop  offset="0.6004" style="stop-color:#C19B45"/>
			<stop  offset="0.6285" style="stop-color:#D8BB6B"/>
			<stop  offset="0.6374" style="stop-color:#E0C679"/>
			<stop  offset="0.6565" style="stop-color:#D9BC6D"/>
			<stop  offset="0.6907" style="stop-color:#C7A34E"/>
			<stop  offset="0.7359" style="stop-color:#A9791C"/>
			<stop  offset="0.7587" style="stop-color:#996200"/>
			<stop  offset="0.7775" style="stop-color:#9C6604"/>
			<stop  offset="0.7978" style="stop-color:#A37011"/>
			<stop  offset="0.8186" style="stop-color:#B08227"/>
			<stop  offset="0.84" style="stop-color:#C19B45"/>
			<stop  offset="0.8615" style="stop-color:#D8BB6B"/>
			<stop  offset="0.8683" style="stop-color:#E0C679"/>
			<stop  offset="0.889" style="stop-color:#D9BC6D"/>
			<stop  offset="0.9262" style="stop-color:#C7A34E"/>
			<stop  offset="0.9752" style="stop-color:#A9791C"/>
			<stop  offset="1" style="stop-color:#996200"/>
		</linearGradient>
		<path style="fill:url(#SVGID_00000116204403864310797650000015853149957899079318_);" d="M828.6,647.9c-0.9-7.3-2.9-12.2-6-15.1
			c-3.1-2.9-6.9-4.4-11.2-4.4c-5.7,0-11.6,1.4-17.4,4.3c-5.2,2.5-9.3,3.8-12.2,3.8c-17.9,0-39.4-2.8-64.1-8.3
			c-24.7-5.5-51.5-12.9-79.5-21.9c-28-9-57.2-19.3-86.7-30.6c-29.7-11.3-58.7-23-86.2-34.6c-27.6-11.7-53.9-23.1-78.1-34
			c-16.2-7.3-28.8-12.9-39.5-17.8l-0.5-0.2h-0.5h-52.5h-1.2l-0.7,1c-8.6,11.9-16.3,23.2-23,33.7c-1.7,2.7-3.4,5.3-5.1,7.9l15.5-39.3
			l1.3-3.3h-3.6h-24.4h-1.7l-0.6,1.6l-90.5,244.3c-2.4,5.3-1.9,10.4,1.6,14.8c3.3,4.3,7.7,6.5,13,6.5c4.6,0,8.8-1.3,12.5-3.8
			c3.8-2.6,6.4-6.3,7.8-10.9c2.5-8.6,6.5-21,12-36.7c5.5-15.6,13.1-34.4,22.8-55.8c9.6-21.3,21.5-45.1,35.5-70.9
			c13.6-25.2,30.2-52,49.4-79.7c27.8,12.7,57.7,25.8,89.1,39.1c31.9,13.4,63.9,26.4,95.3,38.7c31.8,12.4,63.2,24.2,93.1,34.9
			c30.3,10.9,59,20.5,85.1,28.5c26.3,8,50.3,14.5,71.3,19.2c21.1,4.8,38.3,7.2,51.2,7.2c12.4,0,20.6-2.3,25.1-7
			c2.8-2.9,4.1-6.5,3.9-11l0-0.1L828.6,647.9z"/>
	</g>
	<g>
		<path d="M162.9,425.9l-3.1,45.7H38.3v-4.9h2.9c18,0,19.1-2,19.1-33.3v-72.1c0-29.9-0.9-31.7-17.3-31.7h-1.8v-4.9h105.1l3.3,36.6
			h-5.1c-3.1-13.5-6-20-11.1-24.6c-5.3-4.9-12.2-7.1-22.8-7.1h-8.9H81.3v61.6h15.5c19.1,0,22.2-2.9,22.2-20.2v-1.8h5.1v50.3H119v-2
			c0-18-3.1-21.1-21.5-21.1H81.3v34.6c0,21.3,0.9,28.2,4,31.5c2.9,3.1,6.2,4,17.5,4h10.9c14.2,0,21.9-2.7,28.6-9.5
			c7.3-7.3,12.2-17.3,15.5-31.3H162.9z"/>
		<path d="M321.9,436.3c13.7,16.8,20.2,23.5,24.8,26.6c4,2.7,7.8,3.5,15.5,3.8v4.9h-72.9v-4.9h1.3c13.1,0,18.4-2.7,18.4-8.4
			c0-3.5-1.8-7.1-7.3-13.7l-4.9-6.2l-26.4-32.1l-23.1,27.9l-5.5,7.3c-6.9,8.6-7.5,10-7.5,14c0,7.5,5.3,10.9,16.8,11.3v4.9h-56.8
			v-4.9c8-0.7,14.6-2.7,20.8-6.4c5.8-3.3,13.3-10.6,19.1-18l8.2-10.6l24.6-29.5l-38.6-46.3c-3.1-3.8-5.3-6.4-6.9-8.4
			c-12.2-15.1-16-17.5-27.3-17.7v-4.9h62.7v4.9h-2.2c-9.1,0-12.2,1.8-12.2,6.9c0,2.9,1.8,6.4,5.5,10.9l5.1,6l26.8,32.8l24.4-30.6
			l5.3-6.4c4.2-5.3,6-8.4,6-11.3c0-5.5-5.3-8.2-17.3-8.2h-1.8v-4.9h55v4.9c-8.4,0.2-13.7,1.6-20,5.8c-6.4,4.2-14.9,12.9-24.8,25.5
			l-23.1,29.3L321.9,436.3z"/>
		<path d="M528.3,416.6v51.2h-4.7c-1.3-6-3.5-10.9-6.9-15.5c-13.3,14.9-29.5,21.9-50.5,21.9c-41.5,0-71.2-30.2-71.2-72.3
			c0-47.2,29-79.8,70.7-79.8c13.3,0,23.5,2.4,34.1,8.4c9.1,5.1,11.5,6.9,16.8,13.3c3.1-6.2,4.9-12.4,5.5-19.1h4.9l1.1,55.6h-4.7
			c-2.9-17.5-8.2-29.9-16.4-38.4c-8.9-8.9-23.1-14.4-37.2-14.4c-31.9,0-50.1,27-50.1,74.5c0,39.2,20.8,65.8,51.7,65.8
			c12.6,0,27-5.3,34.8-12.9c4.4-4.4,8.6-10.9,12.2-19.1c3.3-7.8,4.2-11.3,5.1-19.5H528.3z"/>
		<path d="M698.3,425.9l-3.1,45.7H573.7v-4.9h2.9c18,0,19.1-2,19.1-33.3v-72.1c0-29.9-0.9-31.7-17.3-31.7h-1.8v-4.9h105.1l3.3,36.6
			h-5.1c-3.1-13.5-6-20-11.1-24.6c-5.3-4.9-12.2-7.1-22.8-7.1h-8.9h-20.4v61.6h15.5c19.1,0,22.2-2.9,22.2-20.2v-1.8h5.1v50.3h-5.1
			v-2c0-18-3.1-21.1-21.5-21.1h-16.2v34.6c0,21.3,0.9,28.2,4,31.5c2.9,3.1,6.2,4,17.5,4h10.9c14.2,0,21.9-2.7,28.6-9.5
			c7.3-7.3,12.2-17.3,15.5-31.3H698.3z"/>
		<path d="M858.4,471.6H733.6v-4.9h4.4c17.5,0,18.6-2,18.6-33.3v-72.1c0-19.5-0.2-22.8-2.7-26.8c-2.4-4-4.9-4.9-17.1-4.9h-3.3v-4.9
			h70.5v4.9h-6.4c-12.2,0-14.9,0.9-17.1,4.9c-2.4,4.2-2.7,7.3-2.7,26.8v76.7c0,18.8,0,20.2,2.4,23.5c2.9,3.8,7.8,5.1,19.5,5.1h11.3
			c17.3,0,23.5-2,30.2-9.8c5.3-6.7,9.1-14.6,12.6-27.3l0.4-1.3h5.1L858.4,471.6z"/>
		<path d="M1014.5,471.6H889.6v-4.9h4.4c17.5,0,18.6-2,18.6-33.3v-72.1c0-19.5-0.2-22.8-2.7-26.8c-2.4-4-4.9-4.9-17.1-4.9h-3.3v-4.9
			h70.5v4.9h-6.4c-12.2,0-14.9,0.9-17.1,4.9c-2.4,4.2-2.7,7.3-2.7,26.8v76.7c0,18.8,0,20.2,2.4,23.5c2.9,3.8,7.8,5.1,19.5,5.1h11.3
			c17.3,0,23.5-2,30.2-9.8c5.3-6.7,9.1-14.6,12.6-27.3l0.4-1.3h5.1L1014.5,471.6z"/>
		<path d="M1171.2,425.9l-3.1,45.7h-121.5v-4.9h2.9c18,0,19.1-2,19.1-33.3v-72.1c0-29.9-0.9-31.7-17.3-31.7h-1.8v-4.9h105.1
			l3.3,36.6h-5.1c-3.1-13.5-6-20-11.1-24.6c-5.3-4.9-12.2-7.1-22.8-7.1h-8.9h-20.4v61.6h15.5c19.1,0,22.2-2.9,22.2-20.2v-1.8h5.1
			v50.3h-5.1v-2c0-18-3.1-21.1-21.5-21.1h-16.2v34.6c0,21.3,0.9,28.2,4,31.5c2.9,3.1,6.2,4,17.5,4h10.9c14.2,0,21.9-2.7,28.6-9.5
			c7.3-7.3,12.2-17.3,15.5-31.3H1171.2z"/>
		<path d="M1233.5,337.4h-0.4v101.8v7.1c0.4,15.1,6.7,20.2,25.7,20.4v4.9H1204v-4.9c20.8-1.6,23.7-4.7,23.7-27.5v-77.8
			c0-29.3-1.6-31.7-20.6-31.7h-1.1v-4.9h43.2l86.5,114.8h0.4v-87.8c0-17.3-5.5-21.9-25.1-22.2v-4.9h53.2v4.9
			c-18.4,1.6-22.8,6.2-22.8,23.7v121.5h-4.7L1233.5,337.4z"/>
		<path d="M1394.5,360l0.7-35.3h142.3l0.9,35.3h-4.7c-1.8-10.2-4.4-17.7-8.2-23.1c-4.4-6.2-8.2-7.3-25.1-7.3h-23.5v103.8
			c0,31.3,1.1,33.3,18.6,33.3h7.3v4.9h-73.4v-4.9h7.5c17.7,0,18.8-2,18.8-33.3V329.7h-21.7h-8.9c-10.4,0-16,2.9-19.7,10.2
			c-2.9,5.8-4.9,12.4-6.2,20.2H1394.5z"/>
	</g>
</g>
</svg>
